
<svg version="1.0" xmlns="http://www.w3.org/2000/svg"
 width="24px" height="24px" viewBox="0 0 512.000000 512.000000"
 preserveAspectRatio="xMidYMid meet">
<metadata>
Created by potrace 1.16, written by Peter Selinger 2001-2019
</metadata>
<g transform="translate(0.000000,512.000000) scale(0.100000,-0.100000)"
fill="#000000" stroke="none">
<path d="M2265 5109 c-487 -60 -917 -239 -1310 -547 -104 -82 -350 -334 -431
-442 -267 -356 -434 -746 -501 -1170 -26 -164 -26 -616 0 -780 82 -519 319
-998 680 -1376 394 -412 874 -667 1441 -766 174 -30 543 -37 727 -13 1188 149
2110 1084 2239 2272 16 145 8 533 -14 667 -184 1134 -1088 2011 -2216 2151
-135 16 -493 19 -615 4z"/>
</g>
</svg>
