
<svg version="1.1" xmlns="http://www.w3.org/2000/svg" width="512" height="512">
<path 
d="M0 0 C8.13102957 5.70545039 15.01994508 13.70730477 16.89453125 23.7109375 C17.78784573 35.04326978 17.34815383 45.03229724 9.82439709 54.24607468 C0.93914409 63.80559491 -8.28258984 73.02150203 -17.52026367 82.23925781 C-19.36444231 84.08315391 -21.20839986 85.92727116 -23.05215454 87.77159119 C-26.9998504 91.71980781 -30.94935228 95.66621005 -34.90013695 99.61133575 C-40.61209112 105.31511371 -46.32123531 111.02169767 -52.02972845 116.72893927 C-61.29463424 125.99166409 -70.56176435 135.25216017 -79.83032227 144.51123047 C-88.82629532 153.49800459 -97.82120263 162.48584324 -106.81469727 171.47509766 C-107.37037548 172.03051315 -107.92605369 172.58592864 -108.49857064 173.1581749 C-111.28663225 175.94493134 -114.07467312 178.73170853 -116.86270368 181.51849604 C-139.94041114 204.58586065 -163.02174052 227.6495979 -186.10546875 250.7109375 C-184.74548351 253.75165439 -183.21832928 255.84484728 -180.86198044 258.18934822 C-179.85311456 259.20048705 -179.85311456 259.20048705 -178.82386756 260.23205292 C-178.08283294 260.96453338 -177.34179832 261.69701384 -176.57830811 262.45169067 C-175.79270705 263.23617832 -175.00710598 264.02066597 -174.19769883 264.82892597 C-171.55544363 267.46509333 -168.90611865 270.09404113 -166.25683594 272.72314453 C-164.36436391 274.60850628 -162.47230481 276.49427349 -160.58079529 278.38059998 C-156.50171348 282.44708205 -152.41920968 286.51010208 -148.3345871 290.57101822 C-142.42035141 296.45129053 -136.51355258 302.33898976 -130.60893229 308.22891556 C-121.0176086 317.79633975 -111.42329414 327.36075754 -101.82568359 336.921875 C-101.25119981 337.49417854 -100.67671602 338.06648208 -100.08482364 338.65612815 C-91.94025465 346.76950682 -83.79269906 354.8798797 -75.64392319 362.98903285 C-74.78401666 363.84475944 -74.78401666 363.84475944 -73.90673828 364.71777344 C-73.334166 365.28755866 -72.76159372 365.85734388 -72.17167076 366.44439532 C-62.61117105 375.95876053 -53.05844922 385.48089126 -43.5120194 395.00937355 C-37.62740276 400.88230672 -31.73637233 406.74865596 -25.83684048 412.60660689 C-21.79003737 416.62590767 -17.75056284 420.65247787 -13.71668091 424.68474622 C-11.39192727 427.00809748 -9.06298642 429.32695506 -6.72723961 431.63926125 C-4.18895843 434.15305623 -1.66342654 436.67902683 0.85943604 439.20828247 C1.59154777 439.9273786 2.3236595 440.64647473 3.07795644 441.38736165 C10.82263043 449.20835657 17.06267212 458.20132297 17.22387695 469.52148438 C17.21553833 470.54338867 17.21553833 470.54338867 17.20703125 471.5859375 C17.2021167 472.29556641 17.19720215 473.00519531 17.19213867 473.73632812 C17.06995213 479.18522137 16.38747252 482.89698195 13.89453125 487.7109375 C13.55421875 488.37222656 13.21390625 489.03351563 12.86328125 489.71484375 C8.04792124 498.28813674 0.42999413 504.18790305 -8.85546875 507.296875 C-21.23736373 509.57548762 -31.36114147 507.47222322 -41.63955748 500.54211462 C-46.03027967 497.28157962 -49.80316628 493.43202024 -53.65129089 489.55952454 C-54.56946305 488.64744348 -55.48763521 487.73536243 -56.43363076 486.79564255 C-58.96240007 484.28317074 -61.48184443 481.76153141 -63.99973476 479.23816359 C-66.72443056 476.51078499 -69.45773118 473.792052 -72.18986511 471.0721283 C-77.53325752 465.7497384 -82.86841914 460.41917213 -88.20042654 455.08537898 C-92.53614594 450.74834952 -96.87442144 446.41389305 -101.21450233 442.08122826 C-102.46687745 440.83095244 -103.71925172 439.58067577 -104.97162515 438.33039826 C-105.5950524 437.70801454 -106.21847965 437.08563082 -106.86079863 436.44438698 C-118.63739225 424.68667433 -130.40401858 412.91902559 -142.16775999 401.1484563 C-152.91907751 390.39156302 -163.68353886 379.64793269 -174.45418295 368.91039381 C-185.5268271 357.87151811 -196.59012506 346.82335322 -207.64358884 335.76527089 C-213.84407489 329.56254359 -220.04822128 323.36358676 -226.26228905 317.17446327 C-231.5518342 311.90597179 -236.8325227 306.62879418 -242.10211249 301.34034023 C-244.78826277 298.64505789 -247.47819712 295.95387725 -250.17926788 293.2735405 C-253.11346133 290.36162157 -256.02772398 287.43051441 -258.94059753 284.49726868 C-259.78855383 283.66183023 -260.63651012 282.82639179 -261.51016206 281.96563703 C-270.98456761 272.34905288 -275.39513384 263.32071348 -275.42236328 249.92382812 C-275.15517039 235.34367265 -265.80856552 226.11174652 -255.99201965 216.32333374 C-254.6300234 214.95348247 -254.6300234 214.95348247 -253.24051207 213.55595744 C-250.73722354 211.03858036 -248.22780007 208.52740039 -245.71723783 206.0172801 C-243.00395237 203.30233838 -240.2963919 200.58169669 -237.5880127 197.86186218 C-231.67381743 191.92488365 -225.75222932 185.99531594 -219.82916474 180.06718779 C-216.12755392 176.36231329 -212.42757703 172.65581004 -208.72794151 168.94896317 C-198.47387488 158.67534221 -188.21823948 148.4032948 -177.95584583 138.13799095 C-176.97214673 137.1540105 -176.97214673 137.1540105 -175.96857492 136.15015165 C-174.6392674 134.82047789 -173.30995861 133.4908054 -171.98064855 132.16113417 C-171.32083092 131.50113372 -170.66101328 130.84113327 -169.98120117 130.16113281 C-169.3205725 129.50032359 -168.65994383 128.83951437 -167.97929611 128.15868063 C-157.27219785 117.44803977 -146.57689509 106.72570388 -135.88673047 95.99816422 C-124.89750496 84.97082745 -113.89891626 73.95290371 -102.89076918 62.94445479 C-96.71571278 56.76881459 -90.54464581 50.58930496 -84.3837986 44.39948654 C-79.13900581 39.13014266 -73.88562947 33.86954616 -68.62104128 28.61997674 C-65.93788828 25.9439763 -63.25885822 23.2641762 -60.59069633 20.57322121 C-57.69192257 17.64992339 -54.77394436 14.74656067 -51.85383606 11.84457397 C-51.02228856 10.99982651 -50.19074107 10.15507905 -49.33399516 9.28473318 C-36.33289519 -3.53339209 -16.8144327 -10.29455064 0 0 Z " fill="#939393" transform="translate(385.10546875,4.2890625)"/>
</svg>
